HIERARCHY
ROOT Bip001_Pelvis
{
  OFFSET 34.4345 95.6767 -26.8758
  CHANNELS 6 Xposition Yposition Zposition Zrotation Xrotation Yrotation
  JOINT Bip001_Spine
  {
    OFFSET 1.4188e-005 10.2191 -0.0116013
    CHANNELS 3 Zrotation Xrotation Yrotation
    JOINT Bip001_L_Thigh
    {
      OFFSET 11.0458 -10.2192 0.0116197
      CHANNELS 3 Zrotation Xrotation Yrotation
      JOINT Bip001_L_Calf
      {
        OFFSET -0.707118 -44.0221 0.360014
        CHANNELS 3 Zrotation Xrotation Yrotation
        JOINT Bip001_L_Foot
        {
          OFFSET -0.651902 -40.5938 -3.56146
          CHANNELS 3 Zrotation Xrotation Yrotation
          JOINT Bip001_L_Toe0
          {
            OFFSET 0.0530839 -10.2181 13.1504
            CHANNELS 3 Zrotation Xrotation Yrotation
            End Site
            {
              OFFSET -1.02532e-005 0 7.55606
            }
          }
        }
      }
    }
    JOINT Bip001_R_Thigh
    {
      OFFSET -11.0458 -10.2191 0.0115893
      CHANNELS 3 Zrotation Xrotation Yrotation
      JOINT Bip001_R_Calf
      {
        OFFSET 0.706994 -44.0221 0.35984
        CHANNELS 3 Zrotation Xrotation Yrotation
        JOINT Bip001_R_Foot
        {
          OFFSET 0.651786 -40.5938 -3.5613
          CHANNELS 3 Zrotation Xrotation Yrotation
          JOINT Bip001_R_Toe0
          {
            OFFSET -0.0531479 -10.2181 13.1504
            CHANNELS 3 Zrotation Xrotation Yrotation
            End Site
            {
              OFFSET -1.02894e-005 0 7.55606
            }
          }
        }
      }
    }
    JOINT Bip001_Spine1
    {
      OFFSET 1.87041e-005 14.5736 1.08638
      CHANNELS 3 Zrotation Xrotation Yrotation
      JOINT Bip001_Spine2
      {
        OFFSET 2.24614e-005 14.5058 -1.69078
        CHANNELS 3 Zrotation Xrotation Yrotation
        JOINT Bip001_Neck
        {
          OFFSET 2.20278e-005 15.3945 -0.489414
          CHANNELS 3 Zrotation Xrotation Yrotation
          JOINT Bip001_L_Clavicle
          {
            OFFSET 6.06036 -0.000579998 0.00836775
            CHANNELS 3 Zrotation Xrotation Yrotation
            JOINT Bip001_L_UpperArm
            {
              OFFSET 11.5509 -0.0600302 0.00193952
              CHANNELS 3 Zrotation Xrotation Yrotation
              JOINT Bip001_L_Forearm
              {
                OFFSET 25.9523 0.0806089 -2.15551
                CHANNELS 3 Zrotation Xrotation Yrotation
                JOINT Bip001_L_Hand
                {
                  OFFSET 32.2475 0.153767 1.63968
                  CHANNELS 3 Zrotation Xrotation Yrotation
                  JOINT Bip001_L_Finger0
                  {
                    OFFSET 6.04639 -2.20976 5.90322
                    CHANNELS 3 Zrotation Xrotation Yrotation
                    End Site
                    {
                      OFFSET 4.22375 -1.43895 0.606485
                    }
                  }
                  JOINT Bip001_L_Finger1
                  {
                    OFFSET 11.0826 -0.704819 -0.198153
                    CHANNELS 3 Zrotation Xrotation Yrotation
                    End Site
                    {
                      OFFSET 6.20027 -0.397518 -0.0787166
                    }
                  }
                }
              }
            }
          }
          JOINT Bip001_R_Clavicle
          {
            OFFSET -6.06037 -0.000563197 0.00835105
            CHANNELS 3 Zrotation Xrotation Yrotation
            JOINT Bip001_R_UpperArm
            {
              OFFSET -11.5509 -0.0599978 0.00190698
              CHANNELS 3 Zrotation Xrotation Yrotation
              JOINT Bip001_R_Forearm
              {
                OFFSET -25.9523 0.0806822 -2.15589
                CHANNELS 3 Zrotation Xrotation Yrotation
                JOINT Bip001_R_Hand
                {
                  OFFSET -32.2475 0.153859 1.63989
                  CHANNELS 3 Zrotation Xrotation Yrotation
                  JOINT Bip001_R_Finger0
                  {
                    OFFSET -6.04641 -2.20976 5.90317
                    CHANNELS 3 Zrotation Xrotation Yrotation
                    End Site
                    {
                      OFFSET -4.22376 -1.43895 0.60647
                    }
                  }
                  JOINT Bip001_R_Finger1
                  {
                    OFFSET -11.0826 -0.704794 -0.198182
                    CHANNELS 3 Zrotation Xrotation Yrotation
                    End Site
                    {
                      OFFSET -6.20028 -0.397504 -0.0787333
                    }
                  }
                }
              }
            }
          }
          JOINT Bip001_Head
          {
            OFFSET 1.09673e-005 11.2744 2.05948
            CHANNELS 3 Zrotation Xrotation Yrotation
            End Site
            {
              OFFSET 2.89576e-005 20.8808 -2.77728e-005
            }
          }
        }
      }
    }
  }
}
MOTION
Frames:	16
Frame Time:	0.04
32.7861 95.3794 -30.9657 0.411671 -2.7482 -6.8917 0.284482 2.6994 -0.854234 5.28439 -0.659047 14.2646 0.321417 10.5771 2.79713 -1.02863 -6.16714 0.0320076 0.933055 -4.13796 -0.133909 -5.41333 -6.4678 0.171314 -0.231506 16.3125 1.88278 -6.90234 -9.10561 -0.933531 2.83511 -9.84745 3.59152 0.611265 5.37392 -1.72465 0.609831 5.37393 -1.72469 4.45967 -3.96195 3.42577 -24.9089 7.65619 -7.56108 -45.4503 33.7556 -3.88936 12.6009 -7.34349 -26.3617 10.384 1.20826 -3.58787 9.54166e-015 3.18055e-015 -0 3.18055e-015 -3.18056e-015 -3.18055e-015 22.075 10.1479 15.7369 57.2641 22.9204 -7.8799 -41.8166 29.5826 29.0142 0.605838 -7.77121 6.12117 -3.18055e-015 -3.18055e-015 -0 -0 -3.18056e-015 -0 -2.85541 -5.58283 5.04111 
32.4482 95.3079 -30.9205 0.464927 -2.6706 -7.79841 0.380085 2.70158 -1.12171 5.32951 -0.656573 14.5616 0.237321 10.9239 3.56238 -0.948548 -6.30064 0.0320158 0.936403 -4.32262 -0.0756059 -5.29796 -7.15393 1.40784 -0.051647 17.1954 2.01708 -7.19395 -9.43344 -1.23424 2.80452 -9.75753 3.5766 0.814133 5.39539 -2.26513 0.814456 5.39577 -2.26514 4.30262 -3.34305 4.90393 -24.3875 7.41996 -8.22526 -45.8488 33.2719 -5.07102 12.6023 -7.80172 -26.7055 10.051 1.40055 -3.23387 -1.27222e-014 0 -0 -1.27222e-014 3.18056e-015 -0 23.0197 9.19385 14.8599 57.8956 16.8439 -8.90238 -35.4333 31.9904 21.8148 0.679246 -10.2427 2.20986 -1.59028e-015 0 1.59028e-015 0 3.18056e-015 -0 -2.67093 -6.15082 6.44161 
32.1898 95.1949 -30.7518 0.805707 -2.86291 -9.22895 0.435313 2.74578 -1.29133 4.80812 -0.199091 14.8736 0.35099 10.9587 4.6382 -0.781316 -6.19989 0.0320096 0.9659 -4.58328 -0.0376584 -5.49749 -7.93731 2.52842 -0.0268722 18.6291 2.19855 -7.41311 -10.1377 -1.07467 2.84823 -9.79747 3.48044 0.934151 5.48096 -2.608 0.934149 5.48096 -2.60799 4.37601 -2.64692 6.29637 -23.7885 7.26587 -9.80385 -47.5764 32.9482 -5.48441 13.1076 -8.11507 -27.574 10.1676 1.52976 -3.33928 3.53112e-031 -3.18055e-015 6.36111e-015 3.53113e-031 -6.36111e-015 3.18055e-015 23.3739 7.85603 13.2675 57.4251 13.4096 -9.35879 -25.0904 22.7058 12.3719 0.00751712 -10.206 -1.47497 -5.96354e-016 0 1.78906e-015 -1.59028e-015 3.18056e-015 -8.94531e-016 -2.76577 -6.78538 7.87515 
31.9598 95.0455 -30.5869 0.860951 -3.10157 -10.2641 0.549522 2.7775 -1.53557 4.54098 0.130256 16.3351 0.594492 11.2601 3.89413 0.734664 -5.50188 0.0265818 1.42674 -5.66439 -0.280377 -5.49239 -8.46842 3.25719 -0.0732937 19.9048 2.31782 -7.5506 -10.7875 -0.778854 2.82546 -9.73716 3.47483 1.17555 5.53886 -3.10321 1.17555 5.53847 -3.10321 4.57907 -2.00166 7.50103 -23.617 7.15159 -11.2494 -49.7308 32.2234 -4.57594 13.7165 -7.68555 -29.6189 10.9801 1.72645 -4.03485 -6.36111e-015 3.18055e-015 3.18055e-015 -6.36111e-015 4.77083e-015 -0 23.4296 6.356 10.9832 56.7697 15.6197 -10.406 -18.3077 9.10885 7.03935 -0.665767 -9.2738 -3.37833 -8.74652e-015 6.36111e-015 -0 -8.34896e-015 3.18056e-015 -7.95139e-016 -3.1311 -7.3356 9.20706 
31.717 94.9659 -30.3588 0.587275 -3.51246 -11.355 0.716464 2.8921 -1.71977 4.77794 0.799225 17.3649 0.406242 11.6607 3.93497 -0.0583613 -6.33349 0.023683 0.999347 -5.17783 -0.0276534 -5.2632 -8.40231 4.04913 -0.127968 20.3421 2.23369 -7.56409 -11.1312 -0.338439 2.80587 -9.68657 3.4569 1.52254 5.76109 -3.48227 1.52254 5.7611 -3.48228 4.35443 -1.85589 8.61282 -23.1343 7.41484 -12.4002 -51.4707 32.7759 -3.76186 13.9956 -7.65988 -31.9799 11.7866 1.35922 -4.84396 -6.36111e-015 -1.59028e-015 -3.18055e-015 -3.18055e-015 0 -3.18055e-015 23.6888 5.30921 8.72755 55.6476 17.5901 -11.364 -14.7087 -1.09453 5.96553 1.4719 -5.56707 -6.76224 3.18055e-015 1.59028e-015 -1.59028e-015 2.38542e-015 0 -1.59028e-015 -3.20044 -7.71911 10.2556 
31.4962 94.9529 -30.1379 0.234685 -3.8866 -12.3393 0.847054 2.98859 -1.81348 5.03548 1.67636 17.9927 0.155934 11.5272 4.38333 -0.932095 -6.82197 0.020531 0.78835 -4.81447 0.144391 -4.98668 -8.05387 4.81534 -0.0969921 20.2691 2.25847 -7.58184 -11.1956 -0.158886 2.7793 -9.62386 3.45208 1.79216 5.94849 -3.67852 1.79216 5.9485 -3.67852 4.36586 -1.67696 9.41481 -22.9804 7.57833 -13.3288 -52.4602 34.3897 -3.2191 14.3321 -7.16232 -33.7805 12.1499 0.79903 -6.31454 6.36111e-015 0 -3.18055e-015 1.27222e-014 0 -3.18055e-015 23.709 4.32342 6.56369 56.7392 21.0205 -14.0143 -15.8296 -6.18547 6.2421 5.82359 -4.02956 -8.32647 -2.38542e-015 -4.77083e-015 6.36111e-015 -2.38542e-015 -4.77083e-015 9.54166e-015 -3.34708 -8.17968 11.0873 
31.3354 95.0118 -29.9796 -0.00466816 -4.16874 -13.0802 0.889474 3.0432 -1.83516 5.11513 2.5861 17.6269 -0.0613964 10.8566 5.71622 -1.99774 -7.08233 0.0136312 0.645485 -4.35068 0.170989 -4.79209 -7.59411 5.35415 -0.0594844 19.8273 2.31269 -7.55904 -11.055 -0.0342561 2.76679 -9.58983 3.45179 1.88026 6.05591 -3.72396 1.88028 6.05593 -3.72455 5.13786 -1.5238 9.921 -23.3579 7.75998 -14.1701 -53.0328 36.4091 -2.53216 15.2368 -5.54027 -35.8173 11.3188 0.63743 -6.87857 -6.62086e-032 -1.59028e-015 -2.38542e-015 3.18055e-015 -3.97569e-015 -1.59028e-015 22.4716 3.40433 3.98491 57.5547 21.5238 -15.0874 -18.4366 -3.25269 6.53578 8.03763 -5.83801 -4.38849 3.97569e-016 0 3.18055e-015 -0 0 3.18055e-015 -4.01396 -8.59895 11.9092 
31.1617 94.9688 -29.82 -0.44241 -4.4746 -13.3308 0.932426 3.0856 -1.95493 5.49047 2.84154 18.4084 0.175876 11.476 5.0743 -1.75323 -7.44502 0.0062472 0.626123 -4.54381 0.319115 -4.44066 -7.00533 5.45581 -0.0790176 19.5497 2.03451 -7.35309 -11.2417 0.403737 2.74544 -9.54528 3.47065 1.97416 6.1371 -3.96854 1.97416 6.1371 -3.96855 5.48404 -1.55762 10.7185 -23.4538 8.06969 -14.6535 -53.5622 38.5271 -1.33137 18.7568 -1.58576 -37.3351 9.12003 -0.333629 -8.05283 3.18055e-015 3.37934e-015 -3.97569e-016 -1.65522e-031 2.38542e-015 3.97569e-015 22.201 2.733 1.85427 56.2225 15.0311 -15.6448 -21.9701 5.57637 11.1645 8.51826 -7.41482 -0.251518 -0 -1.59028e-015 -0 -3.97569e-016 -1.59028e-015 -0 -4.20534 -8.75029 12.8206 
31.1102 94.9281 -29.8076 -0.760657 -4.64181 -13.4508 0.95071 3.11521 -1.99864 5.93966 2.78773 18.2281 -0.0358244 12.2427 5.20818 -1.8946 -7.91572 -0.00574301 0.470062 -4.45708 0.536984 -4.19776 -6.63659 5.35302 -0.139845 19.2533 2.23413 -7.28729 -11.2854 0.467348 2.76822 -9.65251 3.53181 2.0148 6.19481 -4.05779 2.01481 6.19483 -4.0578 5.05805 -2.45721 11.5856 -22.6878 9.12476 -15.1577 -53.4003 39.8187 -0.70694 22.1321 3.20568 -39.0598 7.7271 -0.379576 -9.18592 -3.18055e-015 -2.38542e-015 -1.59028e-015 -3.31043e-032 -1.59028e-015 -1.19271e-015 22.8255 2.91093 0.0729283 55.6157 3.7953 -17.4415 -27.7257 7.57313 20.7817 5.80602 -6.86433 1.37184 1.09332e-015 0 1.59028e-015 1.19271e-015 -7.95139e-016 -0 -3.45972 -8.04169 13.3867 
31.1029 94.8352 -29.8692 -0.947705 -4.90364 -13.2851 0.963353 3.13679 -2.00904 6.27815 2.56476 17.9833 -0.317864 13.158 4.96064 -0.452116 -7.75876 0.0134916 0.748721 -5.25645 0.380534 -4.15043 -6.43302 5.28615 0.000375645 19.4517 2.21483 -7.34059 -11.5287 0.361374 2.82285 -9.8178 3.59153 2.04042 6.23735 -4.07978 2.04042 6.23735 -4.07979 4.88532 -2.16019 12.504 -22.2151 9.15135 -16.2833 -53.5464 41.2191 -0.293003 23.8417 5.11699 -39.6458 5.63478 -0.584398 -9.69394 6.36111e-015 0 -0 3.18055e-015 0 -0 22.0299 1.80213 -2.28704 56.8693 -7.72561 -18.2156 -32.6826 4.42921 31.8546 -2.74283 -6.23921 2.57157 -2.5345e-015 0 -1.98785e-016 -1.13928e-014 0 1.98785e-016 -4.26224 -8.86096 14.3825 
31.1778 94.639 -30.0164 -1.21945 -5.14672 -12.9467 0.985838 3.14867 -2.08696 6.77437 1.77518 18.2091 -0.382103 15.0965 4.11174 0.967506 -7.99587 0.0320556 1.00643 -5.97063 0.29912 -3.95205 -6.44489 5.45032 0.0731428 20.0806 2.30484 -7.60005 -11.8701 -0.108609 2.94328 -10.0947 3.60323 2.09073 6.25841 -4.23746 2.09073 6.25842 -4.23746 4.4302 -1.94749 13.4942 -21.4214 9.04363 -16.8861 -53.9528 41.9734 0.251554 23.7017 4.99631 -39.8626 4.24186 -0.30833 -8.97534 3.18055e-015 7.95139e-016 7.95139e-016 6.36111e-015 7.95139e-016 3.97569e-015 22.1407 0.888014 -3.98561 56.3249 -21.7381 -19.1679 -35.9012 1.29862 47.7305 -12.2143 -2.23372 1.3973 3.27995e-015 1.59028e-015 1.59028e-015 2.68359e-015 1.59028e-015 2.38542e-015 -4.67438 -9.27251 15.3079 
31.3536 94.4091 -30.1162 -1.56231 -5.50029 -12.2463 1.01305 3.16869 -2.21502 7.42585 0.954988 18.2865 -0.535468 17.3414 3.32 1.74572 -8.84523 0.0571999 1.15946 -6.32216 0.269092 -3.79394 -6.35054 5.31652 0.157141 20.8757 2.31274 -7.88842 -12.2394 -0.568942 3.03281 -10.3209 3.63918 2.15392 6.29522 -4.49766 2.15344 6.29526 -4.49687 4.42356 -1.19412 14.2949 -21.2998 8.49565 -17.4909 -54.6765 41.2442 1.38839 23.3819 4.80538 -40.2355 3.63554 0.00766145 -8.34012 7.72434e-032 7.95139e-016 -5.56597e-015 3.18055e-015 0 -5.96354e-015 21.9748 -0.0535708 -4.3212 51.8781 -38.8679 -21.227 -39.9239 5.0926 67.9187 -19.0856 0.438229 1.3351 -7.95139e-016 -3.18055e-015 7.95139e-016 4.41391e-032 -3.18056e-015 7.95139e-016 -5.68944 -10.4327 16.2506 
31.6186 94.0708 -30.1541 -2.15188 -5.83307 -11.3302 1.0697 3.20763 -2.1722 8.09069 -0.25616 18.066 -0.238954 20.1271 1.90665 3.89641 -9.09812 0.114138 1.45007 -7.4168 0.297939 -3.53657 -6.32469 4.77994 0.332398 21.9503 2.37397 -8.2637 -12.6751 -1.28419 3.22931 -10.7539 3.63649 2.26588 6.37171 -4.41437 2.26589 6.37173 -4.4144 4.53939 -1.47193 14.3878 -21.048 8.78532 -17.7686 -55.2065 40.5147 2.47657 22.1622 3.31426 -40.3891 4.15723 0.609915 -7.55327 -3.18055e-015 -1.19271e-015 -1.78906e-015 -9.54166e-015 -7.95139e-016 -2.18663e-015 21.7154 0.193708 -4.59982 46.8634 -51.7462 -20.6712 -43.393 7.22295 83.784 -23.9074 -0.183246 3.11052 -7.95139e-016 0 -0 -7.95139e-016 -3.18056e-015 1.59028e-015 -6.09993 -10.3119 16.4248 
31.9474 93.7317 -30.2605 -2.66817 -5.77969 -10.1245 1.08387 3.15982 -2.02799 9.44849 -1.88032 15.8496 -1.8026 23.2383 3.27815 4.27827 -10.7004 0.181111 1.37418 -7.2108 0.176419 -3.36474 -6.61271 3.8005 0.67321 22.9837 2.37831 -8.64079 -13.0194 -1.92064 3.35993 -11.0518 3.65281 2.28438 6.27856 -4.12494 2.28439 6.27907 -4.12496 4.49467 -1.77943 13.9635 -21.0385 9.05787 -17.832 -54.854 39.6563 3.41499 20.9897 2.40543 -40.5527 6.1675 0.848333 -7.44175 -6.36111e-015 0 9.44227e-016 -3.18055e-015 -3.97569e-016 1.68967e-015 21.8491 0.899568 -3.42244 45.5564 -56.7528 -16.3041 -42.7895 3.02038 92.5566 -26.1823 -0.129968 3.4055 -3.18055e-015 0 3.18055e-015 -3.18055e-015 0 -0 -6.18993 -10.4545 15.9849 
32.2798 93.2164 -30.3177 -3.39725 -5.94225 -8.59085 1.09882 3.14183 -1.78204 10.9195 -3.69591 13.9958 -3.13171 26.868 3.75022 5.55344 -12.0768 0.298458 1.5035 -7.49946 0.0126518 -3.05516 -6.95763 2.93032 1.26009 24.7216 2.24211 -9.2102 -13.6157 -2.89815 3.47651 -11.3301 3.68831 2.30164 6.24717 -3.63265 2.30308 6.24808 -3.63282 4.69132 -2.2655 13.0856 -21.3514 9.446 -17.5872 -54.0397 39.3036 3.79364 20.0557 1.56614 -39.9899 7.28981 0.728966 -7.00342 8.68988e-032 1.19271e-015 -4.17448e-015 -8.27608e-032 -1.19271e-015 -3.97569e-015 21.0277 2.16328 -1.61093 48.2393 -60.9269 -6.36447 -42.5201 0.16435 98.0965 -27.5384 0.0285808 3.81558 -6.36111e-015 -6.36111e-015 1.59028e-015 -1.59028e-015 -6.36111e-015 -4.77083e-015 -6.78181 -10.2992 15.2078 
32.5856 92.5833 -30.2963 -4.42312 -6.6112 -6.93371 1.1095 3.18117 -1.49317 12.718 -5.19238 14.4864 -3.29901 30.9789 1.72945 5.92689 -14.1839 0.437925 1.60532 -7.38127 -0.17385 -2.48886 -6.93951 2.69141 2.23341 26.7513 1.91989 -10.1776 -14.1143 -4.59436 3.57626 -11.6026 3.77684 2.30763 6.33163 -3.05463 2.30107 6.33143 -3.05409 5.14832 -2.65181 12.0547 -21.8089 9.62992 -17.0357 -53.4698 38.989 4.03455 19.4906 0.755864 -39.1483 7.50234 1.56885 -6.408 1.27222e-014 6.36111e-015 1.59028e-015 6.36111e-015 5.56597e-015 2.38542e-015 19.4641 3.63496 1.0568 55.0896 -62.9124 8.9229 -45.1339 -2.01094 99.9126 -28.7279 0.211617 4.58697 -3.18055e-015 3.18055e-015 -1.59028e-015 -4.77083e-015 0 -3.18055e-015 -7.46932 -9.83517 14.4007 
